<svg xmlns="http://www.w3.org/2000/svg" xmlns:xlink="http://www.w3.org/1999/xlink" width="176" zoomAndPan="magnify" viewBox="0 0 132 30.000001" height="40" preserveAspectRatio="xMidYMid meet" version="1.0"><defs><g/><clipPath id="8b2a98307e"><path d="M 15.175781 11.167969 L 23.6875 11.167969 L 23.6875 29.03125 L 15.175781 29.03125 Z M 15.175781 11.167969 " clip-rule="nonzero"/></clipPath><clipPath id="4abfc7b490"><path d="M 24 10 L 31.160156 10 L 31.160156 22 L 24 22 Z M 24 10 " clip-rule="nonzero"/></clipPath><clipPath id="e9f364c947"><path d="M 13.296875 7.519531 L 31.160156 7.519531 L 31.160156 16 L 13.296875 16 Z M 13.296875 7.519531 " clip-rule="nonzero"/></clipPath><clipPath id="2f85b130b7"><path d="M 2.128906 7 L 9 7 L 9 19 L 2.128906 19 Z M 2.128906 7 " clip-rule="nonzero"/></clipPath><clipPath id="5b7ad0cb2a"><path d="M 2.128906 13 L 20 13 L 20 22 L 2.128906 22 Z M 2.128906 13 " clip-rule="nonzero"/></clipPath><clipPath id="e0ecca02dd"><path d="M 113 6 L 129.871094 6 L 129.871094 25 L 113 25 Z M 113 6 " clip-rule="nonzero"/></clipPath></defs><path fill="#000000" d="M 12.589844 6.539062 C 12.589844 4.535156 14.21875 2.90625 16.222656 2.90625 L 17.066406 2.90625 C 19.070312 2.90625 20.699219 4.535156 20.699219 6.539062 L 20.699219 6.832031 L 23.605469 6.832031 L 23.605469 6.539062 C 23.605469 3.277344 21.21875 0.578125 18.097656 0.0820312 C 14.976562 0.578125 12.589844 3.277344 12.589844 6.539062 " fill-opacity="1" fill-rule="nonzero"/><path fill="#5fc3f0" d="M 19.789062 1.011719 C 21.578125 2.046875 22.753906 3.964844 22.78125 6.148438 L 21.0625 6.148438 C 21.070312 6.25 21.078125 6.347656 21.082031 6.449219 L 23.222656 6.449219 C 23.1875 4.070312 21.828125 2.007812 19.789062 1.011719 " fill-opacity="1" fill-rule="nonzero"/><path fill="#00defc" d="M 16.222656 0 C 12.613281 0 9.683594 2.925781 9.683594 6.539062 L 9.683594 17.84375 L 12.589844 17.84375 L 12.589844 6.539062 C 12.589844 3.277344 14.976562 0.578125 18.097656 0.0820312 C 17.761719 0.0273438 17.417969 0 17.066406 0 L 16.222656 0 " fill-opacity="1" fill-rule="nonzero"/><path fill="#000000" d="M 10.066406 17.460938 L 12.207031 17.460938 L 12.207031 16.945312 L 10.507812 16.945312 L 10.507812 6.023438 C 10.507812 4.613281 10.984375 3.316406 11.785156 2.277344 C 10.722656 3.382812 10.066406 4.886719 10.066406 6.539062 L 10.066406 17.460938 " fill-opacity="1" fill-rule="nonzero"/><path fill="#000000" d="M 20.699219 22.496094 C 20.699219 24.5 19.070312 26.128906 17.066406 26.128906 L 16.222656 26.128906 C 14.21875 26.128906 12.589844 24.5 12.589844 22.496094 L 12.589844 22.203125 L 9.683594 22.203125 L 9.683594 22.496094 C 9.683594 25.757812 12.070312 28.457031 15.191406 28.953125 C 18.3125 28.457031 20.699219 25.757812 20.699219 22.496094 " fill-opacity="1" fill-rule="nonzero"/><path fill="#5fc3f0" d="M 13.503906 28.023438 C 11.710938 26.984375 10.539062 25.070312 10.507812 22.882812 L 12.230469 22.882812 C 12.21875 22.785156 12.210938 22.6875 12.210938 22.585938 L 10.066406 22.585938 C 10.101562 24.960938 11.464844 27.027344 13.503906 28.023438 " fill-opacity="1" fill-rule="nonzero"/><g clip-path="url(#8b2a98307e)"><path fill="#00defc" d="M 17.066406 29.035156 C 20.679688 29.035156 23.605469 26.105469 23.605469 22.496094 L 23.605469 11.1875 L 20.699219 11.1875 L 20.699219 22.496094 C 20.699219 25.757812 18.3125 28.457031 15.191406 28.953125 C 15.527344 29.003906 15.871094 29.035156 16.222656 29.035156 L 17.066406 29.035156 " fill-opacity="1" fill-rule="nonzero"/></g><path fill="#000000" d="M 23.222656 11.570312 L 21.082031 11.570312 L 21.082031 12.085938 L 22.78125 12.085938 L 22.78125 23.011719 C 22.78125 24.417969 22.304688 25.71875 21.507812 26.757812 C 22.570312 25.648438 23.222656 24.148438 23.222656 22.496094 L 23.222656 11.570312 " fill-opacity="1" fill-rule="nonzero"/><g clip-path="url(#4abfc7b490)"><path fill="#000000" d="M 24.625 10.460938 C 26.628906 10.460938 28.257812 12.09375 28.257812 14.09375 L 28.257812 14.9375 C 28.257812 16.941406 26.628906 18.570312 24.625 18.570312 L 24.332031 18.570312 L 24.332031 21.476562 L 24.625 21.476562 C 27.882812 21.476562 30.585938 19.089844 31.082031 15.96875 C 30.585938 12.847656 27.882812 10.460938 24.625 10.460938 " fill-opacity="1" fill-rule="nonzero"/></g><path fill="#5fc3f0" d="M 30.152344 17.660156 C 29.113281 19.449219 27.195312 20.625 25.011719 20.652344 L 25.011719 18.933594 C 24.914062 18.941406 24.8125 18.949219 24.714844 18.953125 L 24.714844 21.09375 C 27.089844 21.0625 29.15625 19.699219 30.152344 17.660156 " fill-opacity="1" fill-rule="nonzero"/><g clip-path="url(#e9f364c947)"><path fill="#00defc" d="M 31.160156 14.09375 C 31.160156 10.484375 28.234375 7.558594 24.625 7.558594 L 13.316406 7.558594 L 13.316406 10.460938 L 24.625 10.460938 C 27.882812 10.460938 30.585938 12.847656 31.082031 15.96875 C 31.132812 15.632812 31.160156 15.289062 31.160156 14.9375 L 31.160156 14.09375 " fill-opacity="1" fill-rule="nonzero"/></g><path fill="#000000" d="M 13.699219 7.9375 L 13.699219 10.082031 L 14.214844 10.082031 L 14.214844 8.382812 L 25.140625 8.382812 C 26.546875 8.382812 27.847656 8.855469 28.882812 9.65625 C 27.777344 8.59375 26.277344 7.9375 24.625 7.9375 L 13.699219 7.9375 " fill-opacity="1" fill-rule="nonzero"/><g clip-path="url(#2f85b130b7)"><path fill="#000000" d="M 8.667969 18.570312 C 6.664062 18.570312 5.035156 16.941406 5.035156 14.9375 L 5.035156 14.09375 C 5.035156 12.09375 6.664062 10.460938 8.667969 10.460938 L 8.960938 10.460938 L 8.960938 7.558594 L 8.667969 7.558594 C 5.40625 7.558594 2.703125 9.945312 2.210938 13.0625 C 2.703125 16.183594 5.40625 18.570312 8.667969 18.570312 " fill-opacity="1" fill-rule="nonzero"/></g><path fill="#5fc3f0" d="M 3.140625 11.375 C 4.175781 9.582031 6.09375 8.410156 8.277344 8.378906 L 8.277344 10.101562 C 8.375 10.089844 8.476562 10.082031 8.578125 10.082031 L 8.578125 7.941406 C 6.199219 7.972656 4.132812 9.335938 3.140625 11.375 " fill-opacity="1" fill-rule="nonzero"/><g clip-path="url(#5b7ad0cb2a)"><path fill="#00defc" d="M 2.128906 14.9375 C 2.128906 18.550781 5.054688 21.476562 8.667969 21.476562 L 19.972656 21.476562 L 19.972656 18.570312 L 8.667969 18.570312 C 5.40625 18.570312 2.703125 16.183594 2.210938 13.0625 C 2.15625 13.398438 2.128906 13.742188 2.128906 14.09375 L 2.128906 14.9375 " fill-opacity="1" fill-rule="nonzero"/></g><path fill="#000000" d="M 19.589844 21.09375 L 19.589844 18.953125 L 19.074219 18.953125 L 19.074219 20.652344 L 8.152344 20.652344 C 6.742188 20.652344 5.445312 20.175781 4.40625 19.378906 C 5.511719 20.441406 7.015625 21.09375 8.667969 21.09375 L 19.589844 21.09375 " fill-opacity="1" fill-rule="nonzero"/><g fill="#000000" fill-opacity="1"><g transform="translate(31.223793, 24.624645)"><g><path d="M 16.578125 -13.859375 C 16.796875 -12.953125 16.90625 -11.882812 16.90625 -10.65625 L 16.90625 -7.234375 C 16.90625 -6.003906 16.796875 -4.929688 16.578125 -4.015625 C 16.484375 -3.566406 16.34375 -3.148438 16.15625 -2.765625 C 15.976562 -2.378906 15.773438 -2.046875 15.546875 -1.765625 C 15.066406 -1.148438 14.445312 -0.695312 13.6875 -0.40625 C 12.945312 -0.125 12.070312 0.015625 11.0625 0.015625 L 3.625 0.015625 C 3.289062 0.015625 2.972656 -0.0664062 2.671875 -0.234375 C 2.378906 -0.398438 2.148438 -0.625 1.984375 -0.90625 C 1.859375 -1.113281 1.773438 -1.34375 1.734375 -1.59375 L 1.765625 -16.4375 C 1.785156 -16.519531 1.8125 -16.609375 1.84375 -16.703125 C 1.882812 -16.796875 1.929688 -16.882812 1.984375 -16.96875 C 2.328125 -17.539062 2.828125 -17.847656 3.484375 -17.890625 L 3.484375 -17.90625 L 11.0625 -17.90625 C 12.0625 -17.90625 12.9375 -17.757812 13.6875 -17.46875 C 14.425781 -17.1875 15.046875 -16.75 15.546875 -16.15625 C 15.773438 -15.84375 15.976562 -15.5 16.15625 -15.125 C 16.34375 -14.75 16.484375 -14.328125 16.578125 -13.859375 Z M 4.9375 -3.328125 C 4.9375 -3.285156 4.9375 -3.253906 4.9375 -3.234375 C 4.945312 -3.222656 4.953125 -3.21875 4.953125 -3.21875 L 11 -3.21875 C 11.238281 -3.21875 11.46875 -3.226562 11.6875 -3.25 C 11.90625 -3.28125 12.101562 -3.328125 12.28125 -3.390625 C 12.613281 -3.523438 12.878906 -3.722656 13.078125 -3.984375 C 13.296875 -4.265625 13.453125 -4.640625 13.546875 -5.109375 C 13.585938 -5.359375 13.617188 -5.628906 13.640625 -5.921875 C 13.671875 -6.222656 13.6875 -6.550781 13.6875 -6.90625 L 13.6875 -10.96875 C 13.6875 -11.332031 13.671875 -11.664062 13.640625 -11.96875 C 13.617188 -12.28125 13.585938 -12.554688 13.546875 -12.796875 C 13.453125 -13.265625 13.296875 -13.632812 13.078125 -13.90625 C 12.910156 -14.164062 12.644531 -14.363281 12.28125 -14.5 C 11.9375 -14.625 11.507812 -14.6875 11 -14.6875 L 4.984375 -14.6875 C 4.953125 -14.6875 4.9375 -14.644531 4.9375 -14.5625 Z M 4.9375 -3.328125 "/></g></g></g><g fill="#000000" fill-opacity="1"><g transform="translate(47.387466, 24.624645)"><g><path d="M 13.390625 -15.890625 L 19.5 -0.828125 C 19.582031 -0.617188 19.601562 -0.441406 19.5625 -0.296875 C 19.550781 -0.242188 19.507812 -0.175781 19.4375 -0.09375 C 19.375 -0.0195312 19.253906 0.015625 19.078125 0.015625 L 16.75 0.015625 C 16.445312 0.015625 16.238281 -0.140625 16.125 -0.453125 L 10.734375 -13.90625 C 10.722656 -13.9375 10.71875 -13.953125 10.71875 -13.953125 L 10.625 -13.953125 C 10.625 -13.953125 10.617188 -13.945312 10.609375 -13.9375 C 10.609375 -13.9375 10.597656 -13.921875 10.578125 -13.890625 L 7.796875 -6.84375 L 10.5 -6.84375 C 10.800781 -6.84375 11.007812 -6.695312 11.125 -6.40625 L 11.90625 -4.484375 C 11.976562 -4.234375 11.953125 -4.019531 11.828125 -3.84375 C 11.710938 -3.644531 11.523438 -3.546875 11.265625 -3.546875 L 6.5 -3.546875 L 5.265625 -0.4375 C 5.140625 -0.132812 4.9375 0.015625 4.65625 0.015625 L 2.265625 0.015625 C 2.085938 0.015625 1.960938 -0.0195312 1.890625 -0.09375 C 1.828125 -0.175781 1.789062 -0.242188 1.78125 -0.296875 C 1.738281 -0.429688 1.753906 -0.609375 1.828125 -0.828125 L 7.890625 -15.890625 C 8.179688 -16.660156 8.5 -17.1875 8.84375 -17.46875 C 8.882812 -17.5 8.929688 -17.535156 8.984375 -17.578125 C 9.046875 -17.617188 9.109375 -17.65625 9.171875 -17.6875 C 9.609375 -17.988281 10.109375 -18.140625 10.671875 -18.140625 C 11.265625 -18.140625 11.800781 -17.957031 12.28125 -17.59375 C 12.757812 -17.238281 13.085938 -16.78125 13.265625 -16.21875 C 13.285156 -16.175781 13.304688 -16.125 13.328125 -16.0625 C 13.347656 -16 13.367188 -15.941406 13.390625 -15.890625 Z M 13.390625 -15.890625 "/></g></g></g><g fill="#000000" fill-opacity="1"><g transform="translate(66.245513, 24.624645)"><g><path d="M 12.234375 -10.6875 C 13.367188 -10.6875 14.234375 -10.289062 14.828125 -9.5 C 15.390625 -8.71875 15.671875 -7.613281 15.671875 -6.1875 L 15.671875 -4.28125 C 15.671875 -3.03125 15.394531 -2.007812 14.84375 -1.21875 C 14.28125 -0.40625 13.394531 0 12.1875 0 L 2.390625 0 C 2.285156 0 2.15625 -0.0351562 2 -0.109375 C 1.84375 -0.191406 1.765625 -0.398438 1.765625 -0.734375 L 1.765625 -2.484375 C 1.765625 -2.816406 1.84375 -3.019531 2 -3.09375 C 2.15625 -3.175781 2.285156 -3.21875 2.390625 -3.21875 L 11.671875 -3.21875 C 11.859375 -3.21875 11.988281 -3.25 12.0625 -3.3125 C 12.144531 -3.375 12.210938 -3.4375 12.265625 -3.5 C 12.390625 -3.71875 12.453125 -4.019531 12.453125 -4.40625 L 12.453125 -6.28125 C 12.453125 -6.8125 12.363281 -7.144531 12.1875 -7.28125 C 12.019531 -7.414062 11.851562 -7.484375 11.6875 -7.484375 L 5.171875 -7.484375 C 4.722656 -7.484375 4.265625 -7.539062 3.796875 -7.65625 C 3.328125 -7.769531 2.925781 -8.050781 2.59375 -8.5 C 2.019531 -9.289062 1.734375 -10.445312 1.734375 -11.96875 L 1.734375 -13.625 C 1.734375 -14.90625 2.019531 -15.9375 2.59375 -16.71875 C 3.15625 -17.507812 4.03125 -17.90625 5.21875 -17.90625 L 14.578125 -17.90625 C 14.671875 -17.90625 14.796875 -17.863281 14.953125 -17.78125 C 15.109375 -17.707031 15.1875 -17.503906 15.1875 -17.171875 L 15.1875 -15.4375 C 15.1875 -15.101562 15.109375 -14.894531 14.953125 -14.8125 C 14.796875 -14.726562 14.671875 -14.6875 14.578125 -14.6875 L 5.734375 -14.6875 C 5.546875 -14.6875 5.410156 -14.65625 5.328125 -14.59375 C 5.253906 -14.539062 5.195312 -14.476562 5.15625 -14.40625 C 5.039062 -14.175781 4.984375 -13.875 4.984375 -13.5 L 4.984375 -11.890625 C 4.984375 -11.347656 5.066406 -11.007812 5.234375 -10.875 C 5.398438 -10.75 5.5625 -10.6875 5.71875 -10.6875 Z M 12.234375 -10.6875 "/></g></g></g><g fill="#000000" fill-opacity="1"><g transform="translate(81.170642, 24.624645)"><g><path d="M 15.78125 -17.90625 C 15.882812 -17.90625 16.015625 -17.859375 16.171875 -17.765625 C 16.328125 -17.679688 16.40625 -17.476562 16.40625 -17.15625 L 16.40625 -0.734375 C 16.40625 -0.398438 16.328125 -0.191406 16.171875 -0.109375 C 16.015625 -0.0234375 15.882812 0.015625 15.78125 0.015625 L 13.78125 0.015625 C 13.695312 0.015625 13.578125 -0.0234375 13.421875 -0.109375 C 13.265625 -0.191406 13.1875 -0.398438 13.1875 -0.734375 L 13.1875 -7.4375 L 4.953125 -7.4375 L 4.953125 -0.734375 C 4.953125 -0.398438 4.875 -0.191406 4.71875 -0.109375 C 4.570312 -0.0234375 4.445312 0.015625 4.34375 0.015625 L 2.375 0.015625 C 2.269531 0.015625 2.132812 -0.0234375 1.96875 -0.109375 C 1.8125 -0.191406 1.734375 -0.398438 1.734375 -0.734375 L 1.734375 -17.15625 C 1.734375 -17.476562 1.8125 -17.679688 1.96875 -17.765625 C 2.132812 -17.859375 2.269531 -17.90625 2.375 -17.90625 L 4.34375 -17.90625 C 4.445312 -17.90625 4.570312 -17.859375 4.71875 -17.765625 C 4.875 -17.679688 4.953125 -17.476562 4.953125 -17.15625 L 4.953125 -10.65625 L 13.1875 -10.65625 L 13.1875 -17.15625 C 13.1875 -17.476562 13.265625 -17.679688 13.421875 -17.765625 C 13.578125 -17.859375 13.695312 -17.90625 13.78125 -17.90625 Z M 15.78125 -17.90625 "/></g></g></g><g fill="#000000" fill-opacity="1"><g transform="translate(96.834549, 24.624645)"><g><path d="M 14.828125 -17.90625 C 14.910156 -17.90625 15.03125 -17.863281 15.1875 -17.78125 C 15.351562 -17.707031 15.4375 -17.5 15.4375 -17.15625 L 15.4375 -15.4375 C 15.4375 -15.101562 15.351562 -14.894531 15.1875 -14.8125 C 15.03125 -14.726562 14.910156 -14.6875 14.828125 -14.6875 L 2.328125 -14.6875 C 2.234375 -14.6875 2.109375 -14.726562 1.953125 -14.8125 C 1.804688 -14.90625 1.734375 -15.117188 1.734375 -15.453125 L 1.734375 -17.125 C 1.734375 -17.46875 1.804688 -17.679688 1.953125 -17.765625 C 2.109375 -17.859375 2.234375 -17.90625 2.328125 -17.90625 Z M 14.71875 -10.625 C 14.800781 -10.625 14.921875 -10.582031 15.078125 -10.5 C 15.242188 -10.414062 15.328125 -10.207031 15.328125 -9.875 L 15.328125 -8.15625 C 15.328125 -7.820312 15.242188 -7.613281 15.078125 -7.53125 C 14.921875 -7.445312 14.800781 -7.40625 14.71875 -7.40625 L 5 -7.40625 C 5 -7.40625 4.992188 -7.242188 4.984375 -6.921875 C 4.984375 -6.609375 4.984375 -6.195312 4.984375 -5.6875 C 4.984375 -5.1875 4.976562 -4.648438 4.96875 -4.078125 C 4.957031 -3.503906 4.953125 -2.960938 4.953125 -2.453125 C 4.953125 -1.941406 4.953125 -1.523438 4.953125 -1.203125 C 4.953125 -0.890625 4.953125 -0.734375 4.953125 -0.734375 C 4.953125 -0.398438 4.875 -0.191406 4.71875 -0.109375 C 4.5625 -0.0234375 4.4375 0.015625 4.34375 0.015625 L 2.34375 0.015625 C 2.257812 0.015625 2.132812 -0.0234375 1.96875 -0.109375 C 1.8125 -0.191406 1.734375 -0.398438 1.734375 -0.734375 L 1.78125 -9.125 C 1.8125 -9.226562 1.84375 -9.328125 1.875 -9.421875 C 1.914062 -9.515625 1.957031 -9.601562 2 -9.6875 C 2.34375 -10.257812 2.84375 -10.566406 3.5 -10.609375 Z M 14.71875 -10.625 "/></g></g></g><g clip-path="url(#e0ecca02dd)"><g fill="#000000" fill-opacity="1"><g transform="translate(111.520662, 24.624645)"><g><path d="M 17.828125 -17.90625 C 18.015625 -17.90625 18.144531 -17.8125 18.21875 -17.625 C 18.257812 -17.445312 18.234375 -17.28125 18.140625 -17.125 L 11.5625 -5.5 L 11.5625 -0.734375 C 11.5625 -0.398438 11.476562 -0.191406 11.3125 -0.109375 C 11.15625 -0.0351562 11.035156 0 10.953125 0 L 8.953125 0 C 8.867188 0 8.742188 -0.0351562 8.578125 -0.109375 C 8.421875 -0.191406 8.34375 -0.398438 8.34375 -0.734375 L 8.34375 -5.5 L 1.828125 -17.125 C 1.734375 -17.28125 1.710938 -17.441406 1.765625 -17.609375 C 1.804688 -17.804688 1.9375 -17.90625 2.15625 -17.90625 L 4.625 -17.90625 C 4.726562 -17.90625 4.835938 -17.878906 4.953125 -17.828125 C 5.066406 -17.773438 5.171875 -17.664062 5.265625 -17.5 L 10 -8.796875 L 14.78125 -17.515625 C 14.863281 -17.671875 14.960938 -17.773438 15.078125 -17.828125 C 15.191406 -17.878906 15.300781 -17.90625 15.40625 -17.90625 Z M 17.828125 -17.90625 "/></g></g></g></g><g fill="#00defc" fill-opacity="1"><g transform="translate(30.26281, 23.663661)"><g><path d="M 16.578125 -13.859375 C 16.796875 -12.953125 16.90625 -11.882812 16.90625 -10.65625 L 16.90625 -7.234375 C 16.90625 -6.003906 16.796875 -4.929688 16.578125 -4.015625 C 16.484375 -3.566406 16.34375 -3.148438 16.15625 -2.765625 C 15.976562 -2.378906 15.773438 -2.046875 15.546875 -1.765625 C 15.066406 -1.148438 14.445312 -0.695312 13.6875 -0.40625 C 12.945312 -0.125 12.070312 0.015625 11.0625 0.015625 L 3.625 0.015625 C 3.289062 0.015625 2.972656 -0.0664062 2.671875 -0.234375 C 2.378906 -0.398438 2.148438 -0.625 1.984375 -0.90625 C 1.859375 -1.113281 1.773438 -1.34375 1.734375 -1.59375 L 1.765625 -16.4375 C 1.785156 -16.519531 1.8125 -16.609375 1.84375 -16.703125 C 1.882812 -16.796875 1.929688 -16.882812 1.984375 -16.96875 C 2.328125 -17.539062 2.828125 -17.847656 3.484375 -17.890625 L 3.484375 -17.90625 L 11.0625 -17.90625 C 12.0625 -17.90625 12.9375 -17.757812 13.6875 -17.46875 C 14.425781 -17.1875 15.046875 -16.75 15.546875 -16.15625 C 15.773438 -15.84375 15.976562 -15.5 16.15625 -15.125 C 16.34375 -14.75 16.484375 -14.328125 16.578125 -13.859375 Z M 4.9375 -3.328125 C 4.9375 -3.285156 4.9375 -3.253906 4.9375 -3.234375 C 4.945312 -3.222656 4.953125 -3.21875 4.953125 -3.21875 L 11 -3.21875 C 11.238281 -3.21875 11.46875 -3.226562 11.6875 -3.25 C 11.90625 -3.28125 12.101562 -3.328125 12.28125 -3.390625 C 12.613281 -3.523438 12.878906 -3.722656 13.078125 -3.984375 C 13.296875 -4.265625 13.453125 -4.640625 13.546875 -5.109375 C 13.585938 -5.359375 13.617188 -5.628906 13.640625 -5.921875 C 13.671875 -6.222656 13.6875 -6.550781 13.6875 -6.90625 L 13.6875 -10.96875 C 13.6875 -11.332031 13.671875 -11.664062 13.640625 -11.96875 C 13.617188 -12.28125 13.585938 -12.554688 13.546875 -12.796875 C 13.453125 -13.265625 13.296875 -13.632812 13.078125 -13.90625 C 12.910156 -14.164062 12.644531 -14.363281 12.28125 -14.5 C 11.9375 -14.625 11.507812 -14.6875 11 -14.6875 L 4.984375 -14.6875 C 4.953125 -14.6875 4.9375 -14.644531 4.9375 -14.5625 Z M 4.9375 -3.328125 "/></g></g></g><g fill="#00defc" fill-opacity="1"><g transform="translate(46.426483, 23.663661)"><g><path d="M 13.390625 -15.890625 L 19.5 -0.828125 C 19.582031 -0.617188 19.601562 -0.441406 19.5625 -0.296875 C 19.550781 -0.242188 19.507812 -0.175781 19.4375 -0.09375 C 19.375 -0.0195312 19.253906 0.015625 19.078125 0.015625 L 16.75 0.015625 C 16.445312 0.015625 16.238281 -0.140625 16.125 -0.453125 L 10.734375 -13.90625 C 10.722656 -13.9375 10.71875 -13.953125 10.71875 -13.953125 L 10.625 -13.953125 C 10.625 -13.953125 10.617188 -13.945312 10.609375 -13.9375 C 10.609375 -13.9375 10.597656 -13.921875 10.578125 -13.890625 L 7.796875 -6.84375 L 10.5 -6.84375 C 10.800781 -6.84375 11.007812 -6.695312 11.125 -6.40625 L 11.90625 -4.484375 C 11.976562 -4.234375 11.953125 -4.019531 11.828125 -3.84375 C 11.710938 -3.644531 11.523438 -3.546875 11.265625 -3.546875 L 6.5 -3.546875 L 5.265625 -0.4375 C 5.140625 -0.132812 4.9375 0.015625 4.65625 0.015625 L 2.265625 0.015625 C 2.085938 0.015625 1.960938 -0.0195312 1.890625 -0.09375 C 1.828125 -0.175781 1.789062 -0.242188 1.78125 -0.296875 C 1.738281 -0.429688 1.753906 -0.609375 1.828125 -0.828125 L 7.890625 -15.890625 C 8.179688 -16.660156 8.5 -17.1875 8.84375 -17.46875 C 8.882812 -17.5 8.929688 -17.535156 8.984375 -17.578125 C 9.046875 -17.617188 9.109375 -17.65625 9.171875 -17.6875 C 9.609375 -17.988281 10.109375 -18.140625 10.671875 -18.140625 C 11.265625 -18.140625 11.800781 -17.957031 12.28125 -17.59375 C 12.757812 -17.238281 13.085938 -16.78125 13.265625 -16.21875 C 13.285156 -16.175781 13.304688 -16.125 13.328125 -16.0625 C 13.347656 -16 13.367188 -15.941406 13.390625 -15.890625 Z M 13.390625 -15.890625 "/></g></g></g><g fill="#00defc" fill-opacity="1"><g transform="translate(65.28453, 23.663661)"><g><path d="M 12.234375 -10.6875 C 13.367188 -10.6875 14.234375 -10.289062 14.828125 -9.5 C 15.390625 -8.71875 15.671875 -7.613281 15.671875 -6.1875 L 15.671875 -4.28125 C 15.671875 -3.03125 15.394531 -2.007812 14.84375 -1.21875 C 14.28125 -0.40625 13.394531 0 12.1875 0 L 2.390625 0 C 2.285156 0 2.15625 -0.0351562 2 -0.109375 C 1.84375 -0.191406 1.765625 -0.398438 1.765625 -0.734375 L 1.765625 -2.484375 C 1.765625 -2.816406 1.84375 -3.019531 2 -3.09375 C 2.15625 -3.175781 2.285156 -3.21875 2.390625 -3.21875 L 11.671875 -3.21875 C 11.859375 -3.21875 11.988281 -3.25 12.0625 -3.3125 C 12.144531 -3.375 12.210938 -3.4375 12.265625 -3.5 C 12.390625 -3.71875 12.453125 -4.019531 12.453125 -4.40625 L 12.453125 -6.28125 C 12.453125 -6.8125 12.363281 -7.144531 12.1875 -7.28125 C 12.019531 -7.414062 11.851562 -7.484375 11.6875 -7.484375 L 5.171875 -7.484375 C 4.722656 -7.484375 4.265625 -7.539062 3.796875 -7.65625 C 3.328125 -7.769531 2.925781 -8.050781 2.59375 -8.5 C 2.019531 -9.289062 1.734375 -10.445312 1.734375 -11.96875 L 1.734375 -13.625 C 1.734375 -14.90625 2.019531 -15.9375 2.59375 -16.71875 C 3.15625 -17.507812 4.03125 -17.90625 5.21875 -17.90625 L 14.578125 -17.90625 C 14.671875 -17.90625 14.796875 -17.863281 14.953125 -17.78125 C 15.109375 -17.707031 15.1875 -17.503906 15.1875 -17.171875 L 15.1875 -15.4375 C 15.1875 -15.101562 15.109375 -14.894531 14.953125 -14.8125 C 14.796875 -14.726562 14.671875 -14.6875 14.578125 -14.6875 L 5.734375 -14.6875 C 5.546875 -14.6875 5.410156 -14.65625 5.328125 -14.59375 C 5.253906 -14.539062 5.195312 -14.476562 5.15625 -14.40625 C 5.039062 -14.175781 4.984375 -13.875 4.984375 -13.5 L 4.984375 -11.890625 C 4.984375 -11.347656 5.066406 -11.007812 5.234375 -10.875 C 5.398438 -10.75 5.5625 -10.6875 5.71875 -10.6875 Z M 12.234375 -10.6875 "/></g></g></g><g fill="#00defc" fill-opacity="1"><g transform="translate(80.209659, 23.663661)"><g><path d="M 15.78125 -17.90625 C 15.882812 -17.90625 16.015625 -17.859375 16.171875 -17.765625 C 16.328125 -17.679688 16.40625 -17.476562 16.40625 -17.15625 L 16.40625 -0.734375 C 16.40625 -0.398438 16.328125 -0.191406 16.171875 -0.109375 C 16.015625 -0.0234375 15.882812 0.015625 15.78125 0.015625 L 13.78125 0.015625 C 13.695312 0.015625 13.578125 -0.0234375 13.421875 -0.109375 C 13.265625 -0.191406 13.1875 -0.398438 13.1875 -0.734375 L 13.1875 -7.4375 L 4.953125 -7.4375 L 4.953125 -0.734375 C 4.953125 -0.398438 4.875 -0.191406 4.71875 -0.109375 C 4.570312 -0.0234375 4.445312 0.015625 4.34375 0.015625 L 2.375 0.015625 C 2.269531 0.015625 2.132812 -0.0234375 1.96875 -0.109375 C 1.8125 -0.191406 1.734375 -0.398438 1.734375 -0.734375 L 1.734375 -17.15625 C 1.734375 -17.476562 1.8125 -17.679688 1.96875 -17.765625 C 2.132812 -17.859375 2.269531 -17.90625 2.375 -17.90625 L 4.34375 -17.90625 C 4.445312 -17.90625 4.570312 -17.859375 4.71875 -17.765625 C 4.875 -17.679688 4.953125 -17.476562 4.953125 -17.15625 L 4.953125 -10.65625 L 13.1875 -10.65625 L 13.1875 -17.15625 C 13.1875 -17.476562 13.265625 -17.679688 13.421875 -17.765625 C 13.578125 -17.859375 13.695312 -17.90625 13.78125 -17.90625 Z M 15.78125 -17.90625 "/></g></g></g><g fill="#00defc" fill-opacity="1"><g transform="translate(95.873566, 23.663661)"><g><path d="M 14.828125 -17.90625 C 14.910156 -17.90625 15.03125 -17.863281 15.1875 -17.78125 C 15.351562 -17.707031 15.4375 -17.5 15.4375 -17.15625 L 15.4375 -15.4375 C 15.4375 -15.101562 15.351562 -14.894531 15.1875 -14.8125 C 15.03125 -14.726562 14.910156 -14.6875 14.828125 -14.6875 L 2.328125 -14.6875 C 2.234375 -14.6875 2.109375 -14.726562 1.953125 -14.8125 C 1.804688 -14.90625 1.734375 -15.117188 1.734375 -15.453125 L 1.734375 -17.125 C 1.734375 -17.46875 1.804688 -17.679688 1.953125 -17.765625 C 2.109375 -17.859375 2.234375 -17.90625 2.328125 -17.90625 Z M 14.71875 -10.625 C 14.800781 -10.625 14.921875 -10.582031 15.078125 -10.5 C 15.242188 -10.414062 15.328125 -10.207031 15.328125 -9.875 L 15.328125 -8.15625 C 15.328125 -7.820312 15.242188 -7.613281 15.078125 -7.53125 C 14.921875 -7.445312 14.800781 -7.40625 14.71875 -7.40625 L 5 -7.40625 C 5 -7.40625 4.992188 -7.242188 4.984375 -6.921875 C 4.984375 -6.609375 4.984375 -6.195312 4.984375 -5.6875 C 4.984375 -5.1875 4.976562 -4.648438 4.96875 -4.078125 C 4.957031 -3.503906 4.953125 -2.960938 4.953125 -2.453125 C 4.953125 -1.941406 4.953125 -1.523438 4.953125 -1.203125 C 4.953125 -0.890625 4.953125 -0.734375 4.953125 -0.734375 C 4.953125 -0.398438 4.875 -0.191406 4.71875 -0.109375 C 4.5625 -0.0234375 4.4375 0.015625 4.34375 0.015625 L 2.34375 0.015625 C 2.257812 0.015625 2.132812 -0.0234375 1.96875 -0.109375 C 1.8125 -0.191406 1.734375 -0.398438 1.734375 -0.734375 L 1.78125 -9.125 C 1.8125 -9.226562 1.84375 -9.328125 1.875 -9.421875 C 1.914062 -9.515625 1.957031 -9.601562 2 -9.6875 C 2.34375 -10.257812 2.84375 -10.566406 3.5 -10.609375 Z M 14.71875 -10.625 "/></g></g></g><g fill="#00defc" fill-opacity="1"><g transform="translate(110.559679, 23.663661)"><g><path d="M 17.828125 -17.90625 C 18.015625 -17.90625 18.144531 -17.8125 18.21875 -17.625 C 18.257812 -17.445312 18.234375 -17.28125 18.140625 -17.125 L 11.5625 -5.5 L 11.5625 -0.734375 C 11.5625 -0.398438 11.476562 -0.191406 11.3125 -0.109375 C 11.15625 -0.0351562 11.035156 0 10.953125 0 L 8.953125 0 C 8.867188 0 8.742188 -0.0351562 8.578125 -0.109375 C 8.421875 -0.191406 8.34375 -0.398438 8.34375 -0.734375 L 8.34375 -5.5 L 1.828125 -17.125 C 1.734375 -17.28125 1.710938 -17.441406 1.765625 -17.609375 C 1.804688 -17.804688 1.9375 -17.90625 2.15625 -17.90625 L 4.625 -17.90625 C 4.726562 -17.90625 4.835938 -17.878906 4.953125 -17.828125 C 5.066406 -17.773438 5.171875 -17.664062 5.265625 -17.5 L 10 -8.796875 L 14.78125 -17.515625 C 14.863281 -17.671875 14.960938 -17.773438 15.078125 -17.828125 C 15.191406 -17.878906 15.300781 -17.90625 15.40625 -17.90625 Z M 17.828125 -17.90625 "/></g></g></g></svg>