<svg xmlns="http://www.w3.org/2000/svg" xmlns:xlink="http://www.w3.org/1999/xlink" width="256" zoomAndPan="magnify" viewBox="0 0 192 191.999996" height="256" preserveAspectRatio="xMidYMid meet" version="1.0"><defs><clipPath id="3e3abaa8d5"><path d="M 86.277344 73.847656 L 142.574219 73.847656 L 142.574219 192 L 86.277344 192 Z M 86.277344 73.847656 " clip-rule="nonzero"/></clipPath><clipPath id="9c1bc5bae3"><path d="M 73.847656 49.71875 L 192 49.71875 L 192 106 L 73.847656 106 Z M 73.847656 49.71875 " clip-rule="nonzero"/></clipPath></defs><path fill="#ffffff" d="M 69.1875 43.238281 C 69.1875 29.996094 79.964844 19.21875 93.207031 19.21875 L 98.796875 19.21875 C 112.039062 19.21875 122.816406 29.996094 122.816406 43.238281 L 122.816406 45.175781 L 142.03125 45.175781 L 142.03125 43.238281 C 142.03125 21.679688 126.246094 3.8125 105.609375 0.542969 C 84.96875 3.8125 69.1875 21.679688 69.1875 43.238281 " fill-opacity="1" fill-rule="nonzero"/><path fill="#5fc3f0" d="M 116.789062 6.6875 C 128.632812 13.550781 136.386719 26.226562 136.589844 40.671875 L 125.210938 40.671875 C 125.273438 41.324219 125.320312 41.980469 125.339844 42.648438 L 139.5 42.648438 C 139.277344 26.925781 130.269531 13.265625 116.789062 6.6875 " fill-opacity="1" fill-rule="nonzero"/><path fill="#00defc" d="M 93.207031 0.00390625 C 69.328125 0.00390625 49.972656 19.359375 49.972656 43.238281 L 49.972656 118.011719 L 69.1875 118.011719 L 69.1875 43.238281 C 69.1875 21.679688 84.96875 3.8125 105.609375 0.542969 C 103.390625 0.191406 101.117188 0.00390625 98.796875 0.00390625 L 93.207031 0.00390625 " fill-opacity="1" fill-rule="nonzero"/><path fill="#ffffff" d="M 52.5 115.488281 L 66.660156 115.488281 L 66.660156 112.074219 L 55.421875 112.074219 L 55.421875 39.828125 C 55.421875 30.515625 58.570312 21.933594 63.851562 15.066406 C 56.824219 22.382812 52.5 32.316406 52.5 43.238281 L 52.5 115.488281 " fill-opacity="1" fill-rule="nonzero"/><path fill="#ffffff" d="M 122.816406 148.773438 C 122.816406 162.019531 112.039062 172.792969 98.796875 172.792969 L 93.207031 172.792969 C 79.964844 172.792969 69.1875 162.019531 69.1875 148.773438 L 69.1875 146.835938 L 49.972656 146.835938 L 49.972656 148.773438 C 49.972656 170.332031 65.757812 188.199219 86.394531 191.46875 C 107.035156 188.199219 122.816406 170.332031 122.816406 148.773438 " fill-opacity="1" fill-rule="nonzero"/><path fill="#5fc3f0" d="M 75.214844 185.324219 C 63.371094 178.460938 55.617188 165.785156 55.414062 151.34375 L 66.792969 151.34375 C 66.730469 150.6875 66.683594 150.027344 66.667969 149.363281 L 52.503906 149.363281 C 52.726562 165.082031 61.734375 178.746094 75.214844 185.324219 " fill-opacity="1" fill-rule="nonzero"/><g clip-path="url(#3e3abaa8d5)"><path fill="#00defc" d="M 98.796875 192.007812 C 122.671875 192.007812 142.03125 172.652344 142.03125 148.773438 L 142.03125 73.996094 L 122.816406 73.996094 L 122.816406 148.773438 C 122.816406 170.332031 107.035156 188.199219 86.394531 191.46875 C 88.613281 191.820312 90.890625 192.007812 93.207031 192.007812 L 98.796875 192.007812 " fill-opacity="1" fill-rule="nonzero"/></g><path fill="#ffffff" d="M 139.503906 76.523438 L 125.34375 76.523438 L 125.34375 79.933594 L 136.582031 79.933594 L 136.582031 152.183594 C 136.582031 161.496094 133.433594 170.082031 128.152344 176.945312 C 135.179688 169.625 139.503906 159.695312 139.503906 148.773438 L 139.503906 76.523438 " fill-opacity="1" fill-rule="nonzero"/><path fill="#ffffff" d="M 148.769531 69.191406 C 162.015625 69.191406 172.789062 79.96875 172.789062 93.210938 L 172.789062 98.800781 C 172.789062 112.042969 162.015625 122.820312 148.769531 122.820312 L 146.832031 122.820312 L 146.832031 142.035156 L 148.769531 142.035156 C 170.328125 142.035156 188.195312 126.25 191.464844 105.609375 C 188.195312 84.972656 170.328125 69.191406 148.769531 69.191406 " fill-opacity="1" fill-rule="nonzero"/><path fill="#5fc3f0" d="M 185.320312 116.792969 C 178.457031 128.632812 165.78125 136.390625 151.335938 136.59375 L 151.335938 125.214844 C 150.683594 125.277344 150.027344 125.324219 149.359375 125.339844 L 149.359375 139.503906 C 165.078125 139.28125 178.742188 130.273438 185.320312 116.792969 " fill-opacity="1" fill-rule="nonzero"/><g clip-path="url(#9c1bc5bae3)"><path fill="#00defc" d="M 192.003906 93.210938 C 192.003906 69.332031 172.648438 49.976562 148.769531 49.976562 L 73.996094 49.976562 L 73.996094 69.191406 L 148.769531 69.191406 C 170.328125 69.191406 188.195312 84.972656 191.464844 105.609375 C 191.816406 103.390625 192.003906 101.117188 192.003906 98.800781 L 192.003906 93.210938 " fill-opacity="1" fill-rule="nonzero"/></g><path fill="#ffffff" d="M 76.523438 52.503906 L 76.523438 66.667969 L 79.933594 66.667969 L 79.933594 55.425781 L 152.183594 55.425781 C 161.492188 55.425781 170.074219 58.574219 176.945312 63.855469 C 169.625 56.828125 159.691406 52.503906 148.769531 52.503906 L 76.523438 52.503906 " fill-opacity="1" fill-rule="nonzero"/><path fill="#ffffff" d="M 43.234375 122.820312 C 29.988281 122.820312 19.214844 112.042969 19.214844 98.800781 L 19.214844 93.210938 C 19.214844 79.96875 29.988281 69.191406 43.234375 69.191406 L 45.171875 69.191406 L 45.171875 49.976562 L 43.234375 49.976562 C 21.675781 49.976562 3.808594 65.761719 0.539062 86.398438 C 3.808594 107.039062 21.675781 122.820312 43.234375 122.820312 " fill-opacity="1" fill-rule="nonzero"/><path fill="#5fc3f0" d="M 6.683594 75.21875 C 13.546875 63.375 26.222656 55.617188 40.664062 55.417969 L 40.664062 66.796875 C 41.320312 66.734375 41.976562 66.6875 42.644531 66.671875 L 42.644531 52.507812 C 26.925781 52.726562 13.261719 61.738281 6.683594 75.21875 " fill-opacity="1" fill-rule="nonzero"/><path fill="#00defc" d="M 0 98.800781 C 0 122.679688 19.355469 142.035156 43.234375 142.035156 L 118.007812 142.035156 L 118.007812 122.820312 L 43.234375 122.820312 C 21.675781 122.820312 3.808594 107.039062 0.539062 86.398438 C 0.1875 88.617188 0 90.894531 0 93.210938 L 0 98.800781 " fill-opacity="1" fill-rule="nonzero"/><path fill="#ffffff" d="M 115.480469 139.507812 L 115.480469 125.347656 L 112.070312 125.347656 L 112.070312 136.585938 L 39.820312 136.585938 C 30.511719 136.585938 21.925781 133.433594 15.058594 128.15625 C 22.378906 135.183594 32.3125 139.507812 43.234375 139.507812 L 115.480469 139.507812 " fill-opacity="1" fill-rule="nonzero"/></svg>